# xmcd
#
# Track frame offsets: 
#        150
#        13859
#        28667
#        39208
#        52464
#        66547
#        76177
#        85315
#        96277
#        106837
#
# Disc length: 1621 seconds
#
# Revision: 0
# Processed by: cddbd v1.5.2PL0 Copyright (c) Steve Scherf et al.
# Submitted via: ExactAudioCopy v0.99pb4
#
DISCID=8006530a
DTITLE=George Jones - Treasure of Country
DYEAR=2008
DGENRE=Country
TTITLE0=Golden Ring (with Tammy Wynette)
TTITLE1=He Stopped Loving Her Today
TTITLE2=Her Name Is...
TTITLE3=The Window up Above
TTITLE4=A Good Year For The Roses
TTITLE5=The Race Is On
TTITLE6=Love Bug
TTITLE7=Four-O-Thirty Three
TTITLE8=Treasure Of Love
TTITLE9=Who's Gonna Fill Their Shoes
EXTD=
EXTT0=
EXTT1=
EXTT2=
EXTT3=
EXTT4=
EXTT5=
EXTT6=
EXTT7=
EXTT8=
EXTT9=
PLAYORDER=
